<?xml version="1.0"?>
<svg xmlns="http://www.w3.org/2000/svg" id="Layer_1" data-name="Layer 1" viewBox="0 0 512 512" width="512" height="512"><title>edit</title><polygon points="349.9 469.92 278.77 493.63 285.86 472.35 285.87 472.35 302.48 422.5 349.9 469.92" style="fill:#f8ec7d"/><polygon points="415.25 309.74 462.66 357.16 436.59 383.24 436.58 383.23 389.17 335.82 415.25 309.74" style="fill:#f8ec7d"/><polygon points="436.59 383.24 349.9 469.92 302.48 422.5 345.77 379.22 389.17 335.82 436.58 383.23 436.59 383.24" style="fill:#6fe3ff"/><path d="M345.77,379.22,302.48,422.5l-16.61,49.85H49.34V420.76a50.858,50.858,0,0,1,1.23-11.54c.16-.68.33-1.35.51-2.02,4.78-17.39,18.39-30.96,35.54-36.52l75.57-24.5a96.292,96.292,0,0,0,91.62,0l75.56,24.5A55.475,55.475,0,0,1,345.77,379.22Z" style="fill:#e48e66"/><path d="M253.7,304.72a95.772,95.772,0,0,1-139.82-66.46l-5.32-18.31v-.15a25.854,25.854,0,0,1-20.61-31.6,19.462,19.462,0,0,1,17.3-14.8v.6a13.622,13.622,0,0,0,6.98,1.93,13.775,13.775,0,0,0,13.78-13.16l1.7-37.31a308.246,308.246,0,0,0,36.36-.93c58.9,52.48,146.71,49.11,146.71,49.11v-.23a19.421,19.421,0,0,1,17.26,14.79,26.039,26.039,0,0,1,.74,6.16,25.846,25.846,0,0,1-21.35,25.44v.15l-5.32,18.31A95.69,95.69,0,0,1,253.7,304.72Z" style="fill:#f7caa5"/><path d="M310.78,173.41v.23s-87.81,3.37-146.71-49.11a303.892,303.892,0,0,0,55.2-9.25s28.97,37.28,91.51,41.31Z" style="fill:#494f4f"/><path d="M219.27,115.28a303.892,303.892,0,0,1-55.2,9.25,308.246,308.246,0,0,1-36.36.93l-1.7,37.31a13.775,13.775,0,0,1-13.78,13.16,13.622,13.622,0,0,1-6.98-1.93V121.14a102.765,102.765,0,1,1,205.53,0v35.45C248.24,152.56,219.27,115.28,219.27,115.28Z" style="fill:#5f6768"/><path d="M253.7,346.15l.11.03a96.292,96.292,0,0,1-91.62,0l.1-.03V304.72a95.768,95.768,0,0,0,91.41,0Z" style="fill:#edb288"/></svg>
