<svg id="Capa_1" enable-background="new 0 0 512 512" height="512" viewBox="0 0 512 512" width="512" xmlns="http://www.w3.org/2000/svg"><g><g><path d="m485.953 46.109c-14.62 23.942-40.755 35.231-69.178 35.233l-18.507.001-6.518 10.18v49.556l6.52 10.178 18.509-.001c28.423-.002 54.56 11.282 69.184 35.222z" fill="#eff3f5"/></g><path d="m281 91.75-8.24-12.196c-6.137 1.192-12.5 1.787-18.986 1.788l-18.507.001-4.267 10.407v50l4.273 9.507 18.507-.001c6.484 0 12.847.594 18.984 1.784l8.236-11.29z" fill="#eff3f5"/><g><g><g><g><path d="m388.291 203.187h-19.721c-6.822 0-12.353-5.531-12.353-12.353v-70.954h31.841l12.391 68.763c1.365 7.577-4.459 14.544-12.158 14.544z" fill="#a8d0d5"/><g><g><g><path d="m485.961 186.474.003.004-.006-72.375z" fill="#eff3f5"/><path d="m435.764 153.033c20.764 4.028 38.912 14.966 50.2 33.445l-.011-140.369c-11.285 18.48-29.43 29.421-50.193 33.453z" fill="#daeaef"/><path d="m398.268 81.342-40.55.003c-11.588.001-20.982 9.396-20.981 20.984l.002 27.949c.001 11.589 9.396 20.982 20.984 20.981l40.55-.003z" fill="#fc8086"/></g><g><g><path d="m494.23 197.948c9.078-.001 16.437-7.36 16.436-16.439l-.01-130.42c-.001-9.078-7.361-16.437-16.439-16.436-9.078.001-16.437 7.36-16.436 16.439l.01 130.42c.001 9.078 7.361 16.437 16.439 16.436z" fill="#fc8086"/></g></g></g></g></g><g><g><g><g><g><path d="m298.486 135.657.804-1.172v-14.928c0-49.023-29.51-91.147-71.731-109.598l-.001.04c-.029 1.857-1.88 3.129-3.622 2.485-12.911-4.773-26.868-7.386-41.438-7.386-64.102 0-115.868 48.402-119.258 111.101l-.088 25.244c-.006 1.677-1.303 3.065-2.976 3.185v174.12h96.098c78.985 0 143.015-64.03 143.015-143.015v-31.105l-.772-1.315z" fill="#fcb143"/><path d="m325.925 402.279c0-22.35-12.556-42.805-32.485-52.921-27.917-14.172-57.383-24.026-87.455-29.568-11.642-2.146-20.077-12.319-20.077-24.158v-66.451h-44.557v46.965c0 11.838-8.434 22.012-20.077 24.158-30.072 5.542-59.538 15.396-87.455 29.568-19.929 10.117-32.485 30.572-32.485 52.921v116.532c0 7 5.674 12.674 12.674 12.674h311.917z" fill="#ffece3"/><g><path d="m325.647 329.872c-27.917-14.172-57.384-24.026-87.455-29.568-11.642-2.146-20.077-12.319-20.077-24.158v-46.965h-41.874v73.784c0 11.839 8.434 22.012 20.077 24.158 30.072 5.542 59.538 15.396 87.455 29.568 19.929 10.117 32.485 30.571 32.485 52.921v102.388h29.199c7 0 12.674-5.675 12.674-12.674v-116.533c.001-22.349-12.555-42.804-32.484-52.921z" fill="#ffddce"/></g><path d="m325.925 402.279c0-22.35-12.556-42.805-32.485-52.921-8.451-4.29-17.047-8.178-25.756-11.677-22.858 21.516-53.647 34.7-87.516 34.7-45.257 0-85.014-23.542-107.699-59.047-13.14 4.637-26.054 10.143-38.651 16.538-19.928 10.117-32.484 30.572-32.484 52.921v116.532c0 7 5.674 12.674 12.674 12.674h311.917z" fill="#d5b0ec"/><path d="m345.458 512c7 0 12.674-5.675 12.674-12.674v-116.533c0-22.35-12.556-42.805-32.485-52.921-12.369-6.279-25.043-11.706-37.937-16.29-7.798 12.144-17.597 22.88-28.93 31.743 8.448 3.419 16.789 7.2 24.994 11.365 19.929 10.117 32.485 30.571 32.485 52.921v102.389z" fill="#c995e4"/><g><path d="m254.666 113.041h23.193c11.842 0 21.431 9.602 21.431 21.444v10.144c0 11.842-9.589 21.444-21.431 21.444h-23.193z" fill="#ffece3"/><path d="m104.662 113.041h-23.055c-11.842 0-21.431 9.602-21.431 21.444v10.144c0 11.842 9.589 21.444 21.431 21.444h23.054v-53.032z" fill="#ffddce"/></g><g><g><g><g><g><g><path d="m264.048 170.584c-.048 55.81-58.662 86.928-84.027 87.449-25.364-.565-83.924-31.783-83.876-87.594l-.177-107.808 123.216.106-.004 4.976c-.021 24.978 20.211 45.306 45.189 45.327z" fill="#ffece3"/></g></g></g></g></g><g><path d="m264.369 113.041c-19.403-.017-35.936-12.314-42.343-29.482l-.174 87.025c-.037 43.242-35.231 71.655-62.879 82.504 7.995 3.144 15.358 4.818 21.048 4.945 25.365-.521 83.979-31.639 84.027-87.449z" fill="#ffddce"/></g></g></g><path d="m60.176 235.109v153.948c44.832 0 81.175-36.343 81.175-81.175v-63.7z" fill="#fcb143"/></g></g><g fill="#bb80e0"><path d="m310.594 512v-34.637c0-4.268-3.459-7.726-7.726-7.726-4.268 0-7.726 3.459-7.726 7.726v34.637z"/><path d="m64.326 512v-34.637c0-4.268-3.459-7.726-7.726-7.726s-7.726 3.459-7.726 7.726v34.637z"/></g></g><path d="m266.434 384.771 8.195 19.511c.323.769 1.047 1.295 1.878 1.364l21.088 1.765c1.978.165 2.779 2.631 1.276 3.927l-16.024 13.823c-.632.545-.908 1.396-.717 2.208l4.838 20.602c.454 1.932-1.644 3.456-3.341 2.427l-18.097-10.968c-.713-.432-1.608-.432-2.321 0l-18.098 10.968c-1.697 1.029-3.795-.495-3.341-2.427l4.838-20.602c.191-.812-.086-1.663-.717-2.208l-16.024-13.823c-1.503-1.296-.701-3.762 1.276-3.927l21.088-1.765c.831-.07 1.555-.595 1.878-1.364l8.195-19.511c.769-1.829 3.361-1.829 4.13 0z" fill="#fbe77b"/></g></g></g><path d="m179.733 0c-64.102 0-115.986 50.305-119.376 113.004h.02c-.336 6.097-.142 7.598-.201 21.481 0-11.842 9.589-21.444 21.431-21.444h14.506v-.022l53.515.022c42.815-3.618 77.553-38.296 77.59-81.111s.157-10.165.34-21.97c-14.646-6.401-30.818-9.96-47.825-9.96z" fill="#fa9801"/></g></g></svg>